<?xml version="1.0" encoding="utf-8"?>
<svg xmlns="http://www.w3.org/2000/svg" fill="none" height="29" viewBox="0 0 175 29" width="175">
  <g clip-path="url(#a)" fill="#fe37a2">
    <path d="M21.146.68c.091-.552.835-.887 1.294-.535l3.92 3.821c.382.509.207.849-.202 1.233-1.164 1.09-2.53 2.05-3.7 3.145a.87.87 0 0 1-1.074-.098c-.059-.06-.24-.343-.24-.41V6.047l-.154-.069H8.232c-3.67-.19-5.95 4.644-1.38 5.41 5.84.115 11.693.017 17.537.05 2.772.188 5.168 1.603 5.73 4.47.925 4.712-3.541 8.18-7.876 8.28H8.301l-.045 1.677c-.052.584-.716.942-1.224.641-.358-.21-1.134-1.042-1.485-1.379-.829-.795-1.624-1.63-2.462-2.416-.408-.546-.175-.88.247-1.277 1.169-1.101 2.515-2.098 3.712-3.178.382-.2.854-.113 1.086.262.228.368.1 1.042.124 1.487.01.195.081.394.047.601h13.94c3.825-.247 5.359-4.81 1.03-5.59-5.412-.155-10.936.201-16.336 0C3.968 14.904.629 13.98.08 10.593c-.749-4.618 3.949-8.17 8.197-8.238h12.869c.058-.505-.08-1.193 0-1.677m36.408 7.265q1.73 1.729 1.73 4.825v8.987H55.41v-8.461q0-1.798-.913-2.752-.912-.954-2.49-.954-1.576 0-2.503.954-.926.954-.927 2.752v8.461h-3.873v-8.461q0-1.798-.913-2.752-.912-.954-2.49-.954c-1.05 0-1.913.318-2.53.954q-.927.954-.927 2.752v8.461H33.97V6.436h3.873v1.853a5.15 5.15 0 0 1 1.922-1.521q1.176-.552 2.587-.553 1.797 0 3.209.76a5.33 5.33 0 0 1 2.185 2.17q.746-1.326 2.172-2.128a6.2 6.2 0 0 1 3.085-.802q2.82 0 4.55 1.728m5.34 1.977q.925-1.796 2.518-2.765 1.59-.968 3.554-.968 1.715 0 3.002.691 1.286.693 2.06 1.742V6.437h3.901v15.32h-3.9v-2.24q-.746 1.077-2.061 1.783-1.315.705-3.03.705-1.935 0-3.526-.995-1.592-.995-2.518-2.807-.927-1.811-.926-4.162c0-1.567.309-2.922.926-4.12m10.582 1.756a3.9 3.9 0 0 0-1.494-1.549q-.941-.539-2.02-.539-1.078.001-1.992.526t-1.48 1.534-.567 2.392.568 2.42q.566 1.037 1.493 1.59a3.8 3.8 0 0 0 1.978.553 4.04 4.04 0 0 0 2.02-.54 3.9 3.9 0 0 0 1.494-1.548q.552-1.009.553-2.42 0-1.409-.553-2.419m14.067-4.771q1.202-.691 2.752-.691v4.065h-1.023q-1.827.001-2.753.857-.926.858-.927 2.986v7.632h-3.873V6.436h3.873v2.378a5.45 5.45 0 0 1 1.95-1.908m9.863 2.71v7.41q0 .775.373 1.12.374.346 1.259.346h1.798v3.263H98.4q-4.897 0-4.897-4.756V9.616h-1.826v-3.18h1.826V2.648h3.9v3.788h3.431v3.18zm16.183 12.139-4.26-7.521h-1.826v7.521h-3.873v-19.3h7.248q2.24 0 3.817.787 1.578.789 2.366 2.13t.788 3q0 1.909-1.107 3.442-1.106 1.535-3.292 2.116l4.62 7.825zm-6.086-10.425h3.236q1.577.001 2.352-.76.775-.76.774-2.115c0-.904-.259-1.571-.774-2.06q-.775-.734-2.352-.733h-3.236zm27.995 3.927h-11.203q.137 1.66 1.161 2.6t2.518.94q2.157 0 3.071-1.853h4.177q-.665 2.213-2.545 3.636-1.881 1.425-4.62 1.424-2.213 0-3.97-.982a6.9 6.9 0 0 1-2.739-2.779q-.982-1.796-.982-4.147c0-1.568.324-2.976.969-4.176a6.76 6.76 0 0 1 2.711-2.765q1.742-.968 4.011-.968c1.513 0 2.761.315 3.914.94a6.6 6.6 0 0 1 2.684 2.669q.954 1.728.954 3.968 0 .829-.111 1.493m-3.9-2.6q-.029-1.492-1.079-2.391-1.053-.898-2.573-.899-1.44 0-2.42.871-.984.871-1.204 2.42zm11.342-3.041v7.41q0 .775.373 1.12.374.346 1.259.346h1.798v3.263h-2.434q-4.897 0-4.897-4.756V9.616h-1.825v-3.18h1.825V2.648h3.901v3.788h3.43v3.18zm12.047-2.71q1.203-.691 2.753-.691v4.065h-1.024q-1.826.001-2.752.857-.926.858-.927 2.986v7.632h-3.873V6.436h3.873v2.378a5.46 5.46 0 0 1 1.95-1.908M175 6.436 165.511 29h-4.121l3.319-7.632-6.141-14.932h4.343l3.956 10.701 4.011-10.701z"/>
  </g>
  <defs>
    <clipPath id="a">
      <path d="M0 0h175v29H0z" fill="#fff"/>
    </clipPath>
  </defs>
</svg>